HIERARCHY
ROOT Pelvis
{
	OFFSET 0.000000 0.000000 0.000000
	CHANNELS 6 Xposition Yposition Zposition Xrotation Yrotation Zrotation
	JOINT LeftUpLeg_virtual
	{
		OFFSET 0.000000 0.000000 0.000000
		CHANNELS 3 Xrotation Yrotation Zrotation
		JOINT LeftUpLeg
		{
			OFFSET 18.735201 -5.666702 -4.541200
			CHANNELS 3 Xrotation Yrotation Zrotation
			JOINT LeftLeg
			{
				OFFSET -0.021200 -31.938179 0.493100
				CHANNELS 3 Xrotation Yrotation Zrotation
				JOINT LeftFoot
				{
					OFFSET 0.021200 -31.938179 -4.336299
					CHANNELS 3 Xrotation Yrotation Zrotation
					JOINT LeftToeBase
					{
						OFFSET 0.943001 -26.722000 15.023500
						CHANNELS 3 Xrotation Yrotation Zrotation
						End Site
						{
							OFFSET 0 0 0
						}
					}
				}
			}
		}
	}
	JOINT RightUpLeg_virtual
	{
		OFFSET 0.000000 0.000000 0.000000
		CHANNELS 3 Xrotation Yrotation Zrotation
		JOINT RightUpLeg
		{
			OFFSET -18.735201 -5.666702 -4.541200
			CHANNELS 3 Xrotation Yrotation Zrotation
			JOINT RightLeg
			{
				OFFSET 0.018946 -31.938133 0.493100
				CHANNELS 3 Xrotation Yrotation Zrotation
				JOINT RightFoot
				{
					OFFSET -0.018946 -31.938126 -4.336299
					CHANNELS 3 Xrotation Yrotation Zrotation
					JOINT RightToeBase
					{
						OFFSET -0.943001 -26.722004 15.023500
						CHANNELS 3 Xrotation Yrotation Zrotation
						End Site
						{
							OFFSET 0 0 0
						}
					}
				}
			}
		}
	}
	JOINT Hips_virtual
	{
		OFFSET 0.000000 0.000000 0.000000
		CHANNELS 3 Xrotation Yrotation Zrotation
		JOINT Hips
		{
			OFFSET -0.000000 -0.000000 -0.000000
			CHANNELS 3 Xrotation Yrotation Zrotation
			JOINT Spine
			{
				OFFSET 0.000000 10.199997 -0.299500
				CHANNELS 3 Xrotation Yrotation Zrotation
				JOINT Spine1
				{
					OFFSET 0.000000 11.900002 -1.516600
					CHANNELS 3 Xrotation Yrotation Zrotation
					JOINT Spine2
					{
						OFFSET 0.000000 13.600006 -2.842500
						CHANNELS 3 Xrotation Yrotation Zrotation
						JOINT Neck_virtual
						{
							OFFSET 0.000000 0.000000 0.000000
							CHANNELS 3 Xrotation Yrotation Zrotation
							JOINT Neck
							{
								OFFSET 0.000000 9.624100 -2.890100
								CHANNELS 3 Xrotation Yrotation Zrotation
								JOINT Head
								{
									OFFSET 0.000000 14.068802 -1.351900
									CHANNELS 3 Xrotation Yrotation Zrotation
									End Site
									{
										OFFSET 0 0 0
									}
								}
							}
						}
						JOINT LeftShoulder_virtual
						{
							OFFSET 0.000000 0.000000 0.000000
							CHANNELS 3 Xrotation Yrotation Zrotation
							JOINT LeftShoulder
							{
								OFFSET 15.263000 10.923401 -0.547700
								CHANNELS 3 Xrotation Yrotation Zrotation
								JOINT LeftArm
								{
									OFFSET 25.438599 -2.830597 -13.032500
									CHANNELS 3 Xrotation Yrotation Zrotation
									JOINT LeftForeArm
									{
										OFFSET 29.960503 0.000000 0.000000
										CHANNELS 3 Xrotation Yrotation Zrotation
										JOINT LeftHand
										{
											OFFSET 27.849251 0.000000 0.000000
											CHANNELS 3 Xrotation Yrotation Zrotation
											End Site
											{
												OFFSET 0 0 0
											}
										}
									}
								}
							}
						}
						JOINT RightShoulder_virtual
						{
							OFFSET 0.000000 0.000000 0.000000
							CHANNELS 3 Xrotation Yrotation Zrotation
							JOINT RightShoulder
							{
								OFFSET -15.263000 10.923401 -0.547700
								CHANNELS 3 Xrotation Yrotation Zrotation
								JOINT RightArm
								{
									OFFSET -25.438599 -2.830597 -13.032500
									CHANNELS 3 Xrotation Yrotation Zrotation
									JOINT RightForeArm
									{
										OFFSET -29.960503 0.000000 0.000000
										CHANNELS 3 Xrotation Yrotation Zrotation
										JOINT RightHand
										{
											OFFSET -27.849251 0.000000 0.000000
											CHANNELS 3 Xrotation Yrotation Zrotation
											End Site
											{
												OFFSET 0 0 0
											}
										}
									}
								}
							}
						}
					}
				}
			}
		}
	}
}
MOTION
Frames: 4
Frame Time: 0.03333333
-0.163933 91.935081 -1.903353 0.000000 0.000000 0.000000 11.943453 -7.766322 -1.450493 -24.605982 10.492386 13.655553 32.684880 -0.289004 -0.176502 -15.313426 0.099474 -5.889369 0.000000 0.000000 0.000000 9.486307 2.705902 3.574755 -17.109258 -5.617662 -10.412731 26.276725 -10.625150 3.095972 -21.302824 -16.064540 9.357564 0.000000 0.000000 0.000000 4.106729 2.465177 0.736342 3.951159 8.331674 -0.990866 11.604628 0.127008 -1.271099 5.040846 -0.007807 -0.694856 0.000000 0.000000 0.000000 8.146241 1.219747 -0.063318 2.516094 -0.296758 0.302511 0.000000 0.000000 0.000000 8.095913 -2.020297 -0.058066 6.608304 -26.385074 2.139323 -5.442471 6.650805 -44.316614 2.655488 -21.501845 -4.104703 0.000000 0.000000 0.000000 3.579625 -1.017639 0.279820 3.309714 0.933233 4.609265 -0.065638 10.628293 30.845421 3.747962 27.274644 0.399019 0.000000 0.000000 0.000000 
-0.149955 91.949890 -1.844950 0.000000 0.000000 0.000000 11.937860 -7.659015 -1.454334 -24.612300 10.516895 13.668986 32.607463 -0.294793 -0.166945 -15.377046 0.091024 -5.875404 0.000000 0.000000 0.000000 9.514417 2.776487 3.556814 -17.047510 -5.598953 -10.412041 26.193062 -10.626296 3.067826 -21.381738 -16.053079 9.316625 0.000000 0.000000 0.000000 4.129867 2.551493 0.722271 3.715224 8.133657 -1.045782 11.426242 0.099775 -1.292620 4.992391 -0.031159 -0.729238 0.000000 0.000000 0.000000 8.140998 1.188484 -0.070995 2.489698 -0.334554 0.312881 0.000000 0.000000 0.000000 8.027465 -1.998849 -0.075819 6.549928 -26.343748 2.085103 -5.202775 7.057220 -44.549513 2.619164 -21.110735 -4.109204 0.000000 0.000000 0.000000 3.615246 -1.023656 0.265952 3.322355 0.839535 4.710624 0.257794 10.510885 30.956685 3.847772 26.983081 0.424345 0.000000 0.000000 0.000000 
-0.125896 91.965271 -1.793180 0.000000 0.000000 0.000000 11.926406 -7.541403 -1.459696 -24.624176 10.542648 13.682212 32.546828 -0.300817 -0.154081 -15.426582 0.079825 -5.856310 0.000000 0.000000 0.000000 9.535488 2.878817 3.539629 -16.993456 -5.570818 -10.406650 26.125844 -10.628405 3.041223 -21.449378 -16.042210 9.277343 0.000000 0.000000 0.000000 4.143726 2.645649 0.705554 3.439414 7.979672 -1.127364 11.266093 0.066752 -1.312643 4.948109 -0.057835 -0.759162 0.000000 0.000000 0.000000 8.125283 1.159007 -0.071521 2.460153 -0.368317 0.324052 0.000000 0.000000 0.000000 7.952883 -1.982478 -0.090490 6.485128 -26.297483 2.012751 -5.000909 7.365066 -44.802066 2.579275 -20.834543 -4.121667 0.000000 0.000000 0.000000 3.638896 -1.031800 0.261256 3.328443 0.754247 4.844924 0.491028 10.361170 31.220282 3.909799 26.724353 0.498729 0.000000 0.000000 0.000000 
-0.096844 91.979317 -1.749353 0.000000 0.000000 0.000000 11.909577 -7.418040 -1.466885 -24.642103 10.568943 13.694575 32.501776 -0.307129 -0.137335 -15.463142 0.065584 -5.831236 0.000000 0.000000 0.000000 9.550542 3.007585 3.522189 -16.946521 -5.534642 -10.398512 26.075552 -10.630731 3.018093 -21.505170 -16.032163 9.243269 0.000000 0.000000 0.000000 4.152425 2.731933 0.689533 3.149241 7.837821 -1.218103 11.130081 0.028546 -1.328948 4.910770 -0.087051 -0.783467 0.000000 0.000000 0.000000 8.104848 1.131965 -0.066442 2.428938 -0.397764 0.334762 0.000000 0.000000 0.000000 7.877637 -1.971737 -0.101645 6.419241 -26.248675 1.924519 -4.830318 7.579101 -45.083104 2.532739 -20.678946 -4.148591 0.000000 0.000000 0.000000 3.646825 -1.040404 0.267107 3.321318 0.679802 5.013344 0.599261 10.176921 31.643628 3.920671 26.504962 0.627766 0.000000 0.000000 0.000000 
